<svg xmlns="http://www.w3.org/2000/svg" id="Layer_2" data-name="Layer 2" viewBox="0 0 392.78 257.12">
  <defs fill="#000000">
    <style>
      .cls-1 {
        fill: #e4e7dc;
      }

      .cls-1, .cls-2 {
        stroke-width: 0px;
      }

      .cls-2 {
        fill: #95996a;
      }
    </style>
  </defs>
  <g id="Layer_1-2" data-name="Layer 1">
    <g>
      <g>
        <path class="cls-1" d="m16.5,193.78c3.05,0,5.89-1.08,8.2-3.13.33-.3.3-.69.16-.96-.06-.12-.32-.52-.84-.4-1.06.25-2.1.38-3.09.38-4.84,0-7.5-3.05-7.5-8.59l-.09-27.12c0-.69.26-1.33.75-1.82.48-.49,1.13-.75,1.82-.75h9.32c.43,0,.79-.35.79-.79s-.35-.79-.79-.79h-9.33c-1.41,0-2.56-1.15-2.56-2.56v-9.25c-2.27,4.82-5.73,9.78-12.97,12.35-.23.08-.38.28-.38.51,0,.3.24.54.54.54h3.51c1.41,0,2.56,1.15,2.56,2.56v28.21c0,7.27,3.7,11.61,9.89,11.61Z" fill="#000000"/>
        <path class="cls-1" d="m47.84,193.69c5.58,0,9.25-2.39,11.34-4.39.61-.58,1.46-.84,2.29-.7.79.14,1.45.64,1.8,1.36,1.06,2.2,3.12,3.36,5.95,3.36,2.28,0,4.13-.91,5.27-2.54-1.24.17-2.3-.05-3.16-.65-1.33-.93-2-2.7-2-5.25v-22.64c0-8.12-5.73-12.97-15.32-12.97-4.64,0-10.6,1.18-16.35,3.25-.31.11-.52.41-.52.75v7c3.54-3.7,11.05-9.51,16.41-9.51s8.95,4.47,8.95,11.4v3.69c0,.77-.34,1.48-.93,1.97-.6.49-1.38.69-2.14.54-.5-.09-1.02-.18-1.56-.25-1.83-.31-3.64-.47-5.39-.47-5.53,0-10.5,1.53-13.89,4.39-2.85,2.4-4.35,5.56-4.35,9.14,0,6.22,4.67,12.52,13.6,12.52Zm-2.47-21.43c3.57-2.94,9.04-3.88,15.41-2.65.3.07.59.07.83.07h.89v14.38c0,.64-.23,1.24-.64,1.71-2.84,3.2-6.25,4.89-9.85,4.89-5.98,0-10.49-4.43-10.49-10.31,0-3.17,1.37-6.05,3.85-8.09Z" fill="#000000"/>
        <path class="cls-1" d="m113.03,164.87v16.21c0,4.59-.99,9.01-1.58,11.66-.02.11-.05.22-.07.32h10.11c-.63-2.55-1.72-7.2-1.72-11.97v-17.21c0-13.55-10.55-14.6-13.79-14.6-4.23,0-8.04,1.61-11.34,4.78-.74.72-1.79.9-2.74.5-.95-.41-1.57-1.34-1.57-2.37v-1.58c0-.44-.35-.79-.79-.79h-7.62l.05.2c.57,2.47,1.62,7.08,1.62,11.77v19.29c0,4.59-.99,9.01-1.58,11.65-.02.11-.05.22-.07.32h10.05c-.02-.11-.05-.22-.07-.33-.59-2.64-1.58-7.06-1.58-11.64v-20.91c0-.73.31-1.43.84-1.91,3.77-3.41,7.49-5.06,11.37-5.06,4.84,0,10.49,3.06,10.49,11.67Z" fill="#000000"/>
        <path class="cls-1" d="m176.63,193.69c4.48,0,8.32-1.71,11.74-5.23.69-.71,1.71-.97,2.65-.66.93.31,1.6,1.1,1.74,2.08.13.94.27,1.81.39,2.53.07.38.4.65.78.65h6.48c-.02-.11-.05-.21-.07-.33-.59-2.64-1.58-7.06-1.58-11.65v-30.48c0-.44-.35-.79-.79-.79h-7.69c.65,2.52,1.74,7.18,1.74,11.97v19.11c0,.51,0,1.16.03,1.85.04.81-.29,1.6-.89,2.12-3.72,3.25-7.48,4.9-11.17,4.9-7.81,0-10.58-6.24-10.58-11.58v-27.58c0-.44-.35-.79-.79-.79h-7.62l.05.2c.57,2.47,1.62,7.08,1.62,11.77v17.39c0,13.46,10.69,14.51,13.97,14.51Z" fill="#000000"/>
        <g>
          <path class="cls-1" d="m221.73,169.64l17.06,23.1c.15.2.39.32.63.32h8.06l-18.72-24.77c-.81-1.07-.65-2.61.37-3.49l17.37-14.99h-10.63c.59,2.04.91,6.51-4.76,11.55l-9.38,8.27Z" fill="#000000"/>
          <path class="cls-1" d="m211.21,140.68v40.4c0,4.58-.99,9.01-1.58,11.65-.02.11-.05.22-.07.32h10.14c-.02-.11-.05-.22-.07-.33-.59-2.64-1.58-7.06-1.58-11.64v-52.51c0-.23-.1-.44-.27-.59-.18-.15-.4-.22-.63-.19l-7.79,1.11c.82,2.38,1.86,6.97,1.86,11.78Z" fill="#000000"/>
        </g>
        <path class="cls-1" d="m272.45,149.27c-12.44,0-21.12,9.1-21.12,22.12s8.69,22.39,21.12,22.39,21.21-9.21,21.21-22.39-8.72-22.12-21.21-22.12Zm0,43.12c-7.88,0-13.39-8.63-13.39-21s5.51-20.82,13.39-20.82,13.48,8.56,13.48,20.82-5.54,21-13.48,21Z" fill="#000000"/>
        <path class="cls-1" d="m332.97,180.9c0-6.33-3.64-9.9-13.44-13.2l-1.12-.37c-6.8-2.25-11.72-3.88-11.72-9.08s4.87-7.59,9.68-7.59c6.12,0,11.17,4.45,15.05,8.85v-6.25c0-.32-.18-.6-.46-.72-4.72-2.08-9.84-3.28-14.05-3.28-9.59,0-15.78,4.74-15.78,12.06,0,6.49,5.01,9.42,14.25,12.56,7.65,2.61,12.29,4.59,12.29,10.08s-5.01,8.32-9.67,8.32c-6.52,0-11.87-5.02-16.41-10.16v7.11c0,.31.19.6.46.72,5.55,2.5,10.88,3.82,15.41,3.82,7.15,0,15.51-3.37,15.51-12.88Z" fill="#000000"/>
        <path class="cls-1" d="m372.15,164.87v16.21c0,4.59-.99,9.01-1.58,11.65-.02.11-.05.22-.07.32h10.11c-.64-2.55-1.72-7.19-1.72-11.97v-17.21c0-13.55-10.55-14.6-13.79-14.6-4.21,0-7.92,1.55-11.34,4.75-.75.7-1.79.88-2.74.47-.95-.41-1.57-1.35-1.57-2.38v-23.53c0-.23-.1-.44-.27-.59-.18-.15-.4-.22-.63-.18l-7.7,1.1c.82,2.38,1.86,6.97,1.86,11.78v40.4c0,4.59-.99,9.02-1.59,11.66-.02.11-.05.21-.07.31h10.11c-.63-2.55-1.72-7.2-1.72-11.97v-21.16c0-.75.32-1.45.87-1.94,3.63-3.17,7.35-4.78,11.07-4.78,5.2,0,10.76,3.06,10.76,11.67Z" fill="#000000"/>
        <path class="cls-1" d="m193.1,104.14c-.25-1.37-1.18-2.28-2.36-3.05-1.51-.98-3.51-.75-4.79.5-1.52,1.49-1.56,3.93-.07,5.45,1.05,1.08,3.37.66,4.62.33.4-.11.77.24.7.64-.22,1.18-.74,3.37-1.87,5.65-5.17,10.41-20.47,20.16-29.5,22.87-2.07.62-17.69,3.39-19.32.39-.19-.35-.2-.78-.2-1.18,0-3.75.01-6.94.02-10.69,0-.39-.06-.88-.42-1.02-.46-.18-.87.36-1.07.82-1.29,2.9-2.5,5.85-4.22,8.52-1.71,2.67-3.99,5.07-6.88,6.38-.38.17-.86.52-.66.9.11.21.38.27.61.29,1.07.09,2.16-.13,3.23-.03,1.43.14,2.67,1.06,2.67,2.58v38.69c0,7.27,3.7,11.61,9.89,11.61,3.05,0,5.89-1.08,8.2-3.13.33-.3.3-.69.16-.96-.06-.12-.32-.52-.84-.4-1.06.25-2.1.38-3.09.38-4.84,0-7.5-3.05-7.5-8.59l-.05-15.67c0-3.09-.1-6.2-.03-9.29.05-2.26.21-7.43.22-12.72,0-.93.7-1.71,1.62-1.81,1.56-.17,3.78.16,4.35.19,2.18.11,4.42-.06,6.6-.34,8.24-1.08,16.08-4.09,22.89-8.83,8.45-5.89,17.81-15.06,17.28-26.18-.03-.63-.09-1.63-.21-2.29Z" fill="#000000"/>
      </g>
      <g>
        <path class="cls-1" d="m245.3,65.66c-11.28-3.83-21.9-1.22-30.03,7.48-3.27,3.26-10.99,10.94-14.34,14.29-1.59,1.78-2.67,1.03-4.01-.47,0,0-2.26-2.3-2.26-2.3-1.38-1.36-.29-2.33.81-3.38,3.77-3.75,8.8-8.83,12.59-12.6,1.32-1.38,3.35-3.21,4.5-4.71,1.72-2.11,3.18-4.54,4.18-7.07,3.15-7.65,2.42-16.72-1.81-23.82-1.11-1.88-2.5-3.66-4.01-5.22,0,0-9.13-9.19-9.13-9.19-4.97-4.98-12.83-12.85-17.73-17.75-.21-.2-.8-.72-1-.91,0,0-.37.37-.37.37-5.8,5.79-20.79,20.75-26.4,26.37,0,0-1.1,1.1-1.1,1.1-1.12,1.16-1.9,2.6-2.67,4-1.99,3.73-3.05,7.98-2.99,12.21,0,1.58.19,3.17.44,4.72.12.81.12,1.7-.79,1.92-1.42.24-3-.26-4.46-.29-2.1-.18-4.25-.07-6.32.3-4.17.71-8.18,2.52-11.39,5.3-2.78,2.5-6.14,6.15-8.85,8.79-2.82,2.81-10.48,10.52-13.19,13.19-2.4,2.42-4.91,4.84-6.76,7.74-.14.28-.11.75.19.96.2.14.37.14.48.15.73-.05,1.29-.41,1.86-.69,1.9-.97,3.51-2.42,4.98-3.92,6.93-6.96,15.11-15.1,22.03-21.96.61-.62,1.14-1.29,1.83-1.9,5.82-4.38,13.65-5.82,20.57-3.42,2.31.72,4.56,1.79,6.82,2.73-.89-2.11-1.96-4.19-2.71-6.34-1.02-2.96-1.36-6.15-1.1-9.27.47-6.57,3.88-11.92,8.76-16.15,0,0,2.74-2.69,2.74-2.69,3.53-3.5,12.6-12.68,16.23-16.35,1.1-1.31,2.28-1.8,3.52-.45l.69.66s1.37,1.34,1.37,1.34c5.14,4.97,11.34,11.12,16.39,16.18,5.83,5.81,10.92,9.99,12.2,18.7,1.07,7.69-1.23,15.42-7.07,20.68-3.3,3.41-12.37,12.42-15.49,15.75-1.26,1.54-2.63.76-3.71-.46l-2.73-2.71c-.45-.44-.89-.89-1.09-1.45-.45-1.24.73-2.23,1.53-3.05l1.36-1.36,5.43-5.43,5.43-5.43,2.71-2.72c1.58-1.61,2.86-3.53,3.57-5.68,1.88-5.32.22-11.21-3.85-15.03-4.98-4.92-14.02-13.88-19.09-18.91-.06.05-.12.1-.17.15.06-.05.12-.11.17-.15-.09.07-.18.15-.28.24-.1.08-.18.15-.25.23-.05.05-.1.1-.14.15-.51.5-1.08,1.09-1.47,1.46-1.33,1.31-4.97,4.96-6.33,6.3-1.4,1.41-2.85,2.77-4.11,4.31-6.34,7.49-7.79,19.28-3.52,28.11,1.3,2.67,3.11,5.15,5.16,7.29,12.92,13.07,31.07,31.22,44.08,44.32,4.09,4.38,9.39,7.8,15.35,8.87,7.88,1.58,16.46-.6,22.57-5.82,3.35-3.08,17.93-17.75,21.44-21.24-6.18-6.26-12.38-12.42-18.56-18.63-2.99-3.17-6.53-5.97-10.71-7.41Zm-32.58,32.71l1.42-1.42c3.78-3.81,7.59-7.58,11.34-11.42.94-.95,1.88-1.93,2.83-2.85,2.84-2.72,7.27-3.4,10.95-2.16,2.61.77,4.39,2.88,6.3,4.69,0-.01,4.36,4.23,5.53,5.31.09.09.18.18.27.27,0,0,.02-.02.02-.02h0s0,0,0,0h0c1.88,1.97,6.58,6.78,8.36,8.69,1.12,1.22.46,2.16-.59,3.11-1.92,1.88-3.78,3.81-5.73,5.64-1.96,1.82-3.94,3.62-6.25,4.89-2.29,1.29-4.82,2.14-7.41,2.55-8.04,1.26-15.94-1.4-21.45-7.42l-5.74-5.64c-.34-.35-1.02-.94-1.2-1.37-.61-1.13.63-2.09,1.35-2.82Zm54.32-3.6l-1.93,1.98c-.58.61-1.33,1.26-2.21,1.11-.88-.15-1.52-.87-2.15-1.48,0,0-6.41-6.27-7.69-7.48-.07-.07-.14-.14-.22-.22,0,0,0,0-.01,0-2.56-2.64-5.03-5.37-7.71-7.9-2.61-2.65-6.4-4.1-10.14-3.96-3.78.06-7.38,1.86-10.03,4.49,0,0-7.87,7.74-7.87,7.74-1.27,1.24-4.68,4.61-5.89,5.81-.93.78-1.71,2.19-2.82,2.61-.8.19-1.33-.47-1.92-1.01l-.99-.95c-.82-.79-1.61-1.62-2.4-2.45-.79-.7-1.05-1.54-.35-2.41,1.62-1.78,5.05-5.03,6.76-6.79l7.82-7.78c2.53-2.63,5.3-4.97,8.61-6.51,6.41-3.1,14.57-2.77,20.86.49,3.23,1.71,5.82,4.31,8.37,6.91,1.93,1.96,5.86,5.84,7.85,7.75.66.65,4.38,4.25,4.94,4.81,2.56,2.21.92,3.38-.87,5.2Zm-69.43-57.97c.92.97,1.89,1.89,2.72,2.92,2.51,3.07,3.27,7.46,1.71,11.12-.96,2.52-2.88,4.37-4.8,6.22-4.33,4.23-8.6,8.53-12.9,12.79-.73.67-1.7,2.05-2.79,1.47-.48-.23-.9-.71-1.39-1.2-1.9-1.91-3.83-3.79-5.67-5.73-2.33-2.37-4.44-4.93-5.83-7.96-3.02-6.59-2.5-14.64.86-21.01,1.26-2.36,3.01-4.35,4.92-6.22,0,0,5.65-5.77,5.65-5.77,1.92-2.21,2.94-1.14,4.62.55.85.8,5.31,5.19,6.9,6.65.12.12.24.24.37.37,0,0,.01-.01.02-.02h0,0,0s0,0,0,0h0s5.63,5.83,5.63,5.83Zm-25.05-9.85c-.08.08-.15.15-.23.23.08-.08.15-.15.23-.23Z" fill="#000000"/>
        <path class="cls-1" d="m168.19,74s-2.12-2.11-2.12-2.11c-2.12-2.17-4.63-3.99-7.34-5.35-7.21-3.76-16.14-3.87-23.47-.38-2.72,1.32-5.26,3.05-7.42,5.16-6.35,6.35-12.61,12.79-18.89,19.2,0,0,0,0,0,0,.19.22.3.35.42.47.13.13.25.25.38.38,4.82,5.07,11.56,11.69,16.26,16.59,1.52,1.49,4.95,5.1,6.5,6.47,3.91,3.39,9.02,5.33,14.19,5.46,6.24.21,12.44-2.37,16.87-6.73l4.32-4.3,17.29-17.21.39-.39-.39-.39-16.98-16.87Zm-45.84,6.79s0,0,0,0c0,0,0,0,0,0,1.29-1.27,4.55-4.52,5.81-5.76,1.41-1.44,2.96-2.84,4.6-4.02,6.68-4.65,15.06-5.64,22.57-2.45,1.62.67,3.28,1.59,4.72,2.6,2.67,1.7,5.6,5.18,7.91,7.39,2.55,2.63,9,9.07,11.43,11.62.51.63.67,1.22.19,1.92-.36.57-1.32,1.39-1.79,1.9,0,0-1.93,1.92-1.93,1.92-1.51,1.65-2.3,1.56-3.75-.06l-1.92-1.93c-2.56-2.54-9.11-9.06-11.59-11.52-1.31-1.28-2.58-2.69-4.16-3.67-4.75-3.14-11.29-2.79-15.83.54-3.03,2.3-8.88,8.76-11.69,11.49,0,0-3.82,3.89-3.82,3.89-.98.86-1.75,2.2-3.07,2.52-.43.06-.83-.16-1.15-.48-1.84-1.66-3.64-3.44-5.27-5.3-.68-1.08.31-2.14,1.08-2.85,0,0,6.05-6.1,7.4-7.47.09-.09.18-.18.27-.27,0,0,0,0,0,0h0s0,0,0,0h0Zm39.76,9.55s-.02-.02-.02-.02c1.93,1.94,6.58,6.59,8.41,8.49,1.15,1.2.86,2.31-.28,3.35,0,0-5.7,5.56-5.7,5.56-1.92,1.8-3.8,3.73-5.89,5.31-6.32,4.62-15.56,4.54-22.04.28-1.97-1.18-4.18-3.64-5.84-5.24-1-.97-6.18-6.15-7.07-7-.96-.89-.66-1.98.24-2.75l1.4-1.42,11.15-11.38c1.64-1.59,3.77-4.27,5.97-5.07,3.59-1.59,8.11-1.1,11.16,1.45,1.98,1.84,6.47,6.49,8.49,8.41,0,0-.08-.08-.22-.22.07.07.15.15.22.22,0,0,0,0,0,0,0,0,.02.02.02.02Z" fill="#000000"/>
        <path class="cls-1" d="m280.33,84.83c-1.68-2.72-3.84-5.09-5.99-7.44-2.16-2.35-4.23-4.76-6.34-7.15-6.19-7.18-13.41-14.31-22.85-16.84-5.43-1.59-11.39-1.8-16.76.13-1.55.68-2.77,1.7-4.1,2.71-1.28,1.04-2.2,2.4-3.33,3.56l-1.61,1.75c-.26.3-.73.67-.64,1.14.1.77,1.08,1.02,1.58.51,1.41-1.09,2.73-2.36,4.12-3.46,4.73-4.23,8.91-5.16,15.1-4,6.27.87,12.37,3.08,17.32,7.11,6.19,5.02,11.03,11.45,16.54,17.17,1.08,1.17,2.14,2.37,3.38,3.38.18.2,2.08,1.54,3.08,1.9.02,0,.03.01.05.02.04.02.09.03.13.04.04.01.08.02.12.03.03,0,.05,0,.08,0,.04,0,.08,0,.11,0,.01,0,.02,0,.03,0,.04-.02.08-.04.1-.08.06-.15-.03-.31-.12-.45Z" fill="#000000"/>
      </g>
    </g>
    <g>
      <path class="cls-2" d="m7.77,250.71h-2.02v-11.39H1.44v-1.82h10.63v1.82h-4.31v11.39Z" fill="#000000"/>
      <path class="cls-2" d="m24.72,250.71h-2.02v-13.21h4.93c1.52,0,2.71.36,3.57,1.08.86.72,1.29,1.73,1.29,3.04,0,.94-.28,1.76-.85,2.45-.56.69-1.35,1.15-2.35,1.38l3.59,5.26h-2.43l-3.29-4.97h-2.43v4.97Zm0-11.52v4.86h2.78c.93,0,1.66-.21,2.17-.62.52-.41.77-1.01.77-1.81s-.26-1.4-.77-1.81c-.52-.41-1.24-.62-2.17-.62h-2.78Z" fill="#000000"/>
      <path class="cls-2" d="m52.02,248.94v1.77h-8.37v-13.21h8.24v1.77h-6.22v3.75h5.67v1.77h-5.67v4.16h6.35Z" fill="#000000"/>
      <path class="cls-2" d="m72.31,250.71l-4.03-11-4.08,11h-2.04l5.06-13.21h2.23l5.02,13.21h-2.15Zm-7.07-4.91h6.15l.55,1.64h-7.38l.68-1.64Z" fill="#000000"/>
      <path class="cls-2" d="m94.41,246.85c0,.76-.2,1.45-.6,2.06s-.97,1.1-1.72,1.45c-.75.36-1.66.53-2.72.53s-1.98-.18-2.75-.54c-.77-.36-1.36-.87-1.79-1.54-.43-.66-.67-1.43-.74-2.3h2.06c.05.83.34,1.5.87,2.01s1.3.75,2.31.75c.56,0,1.07-.08,1.51-.26.44-.17.79-.42,1.04-.74.25-.32.38-.71.38-1.16,0-.55-.18-.98-.55-1.29-.37-.31-.93-.54-1.69-.7l-1.91-.37c-.47-.1-.91-.23-1.33-.4-.42-.17-.8-.4-1.14-.67-.34-.28-.6-.62-.79-1.03-.19-.41-.29-.89-.29-1.44,0-.75.2-1.42.6-2,.4-.59.95-1.05,1.66-1.39.71-.34,1.52-.51,2.44-.51s1.75.18,2.48.53c.73.36,1.32.85,1.77,1.49.45.64.7,1.4.75,2.28h-2.06c-.04-.53-.18-.99-.43-1.4-.25-.41-.59-.72-1-.95-.42-.23-.91-.34-1.47-.34s-1.04.1-1.44.3-.69.47-.9.79c-.21.33-.31.68-.31,1.06,0,.42.11.75.32,1,.21.25.5.45.86.6.36.15.74.26,1.14.35l1.95.39c1.14.23,2.01.61,2.62,1.14.61.53.91,1.29.91,2.28Z" fill="#000000"/>
      <path class="cls-2" d="m115.75,237.5v8.46c0,1.01-.21,1.89-.62,2.64-.41.75-1,1.34-1.76,1.76-.76.42-1.67.63-2.74.63s-1.96-.21-2.72-.63c-.76-.42-1.35-1-1.76-1.76-.41-.75-.62-1.63-.62-2.64v-8.46h2.02v8.52c0,.64.12,1.19.37,1.67.25.47.6.84,1.05,1.09.45.26,1.01.39,1.66.39s1.22-.13,1.68-.39c.46-.26.81-.62,1.05-1.09.24-.47.36-1.03.36-1.67v-8.52h2.02Z" fill="#000000"/>
      <path class="cls-2" d="m129.42,250.71h-2.02v-13.21h4.93c1.52,0,2.71.36,3.57,1.08.86.72,1.29,1.73,1.29,3.04,0,.94-.28,1.76-.85,2.45-.56.69-1.35,1.15-2.35,1.38l3.59,5.26h-2.43l-3.29-4.97h-2.43v4.97Zm0-11.52v4.86h2.78c.93,0,1.66-.21,2.17-.62.52-.41.77-1.01.77-1.81s-.26-1.4-.77-1.81c-.52-.41-1.24-.62-2.17-.62h-2.78Z" fill="#000000"/>
      <path class="cls-2" d="m156.73,248.94v1.77h-8.37v-13.21h8.24v1.77h-6.22v3.75h5.67v1.77h-5.67v4.16h6.35Z" fill="#000000"/>
      <path class="cls-2" d="m191.99,250.99c-.96,0-1.84-.17-2.66-.52s-1.53-.84-2.13-1.46c-.61-.63-1.08-1.36-1.42-2.2-.34-.84-.51-1.74-.51-2.71s.17-1.87.51-2.7c.34-.83.81-1.56,1.42-2.18.61-.62,1.32-1.1,2.13-1.45s1.7-.52,2.66-.52,1.84.17,2.66.52,1.53.83,2.13,1.45c.61.62,1.08,1.35,1.42,2.18.34.83.51,1.74.51,2.7s-.17,1.87-.51,2.71c-.34.84-.81,1.57-1.42,2.2-.61.62-1.32,1.11-2.13,1.46s-1.7.52-2.66.52Zm0-1.82c.7,0,1.33-.13,1.9-.39.56-.26,1.05-.62,1.46-1.09.41-.47.72-1.01.94-1.63.21-.62.32-1.28.32-1.98s-.11-1.35-.32-1.97c-.21-.61-.53-1.15-.94-1.61s-.9-.82-1.46-1.08c-.56-.26-1.2-.39-1.9-.39s-1.33.13-1.9.39c-.56.26-1.05.62-1.46,1.08s-.72,1-.94,1.61c-.21.61-.32,1.27-.32,1.97s.11,1.36.32,1.98c.21.62.53,1.16.94,1.63.41.47.9.83,1.46,1.09.56.26,1.2.39,1.9.39Z" fill="#000000"/>
      <path class="cls-2" d="m211.66,250.71h-2.02v-13.21h8.02v1.77h-6v4.31h5.12v1.77h-5.12v5.37Z" fill="#000000"/>
      <path class="cls-2" d="m251.83,250.71h-2.02v-11.39h-4.31v-1.82h10.63v1.82h-4.31v11.39Z" fill="#000000"/>
      <path class="cls-2" d="m268.77,250.71h-2.02v-13.21h2.02v5.52h6.7v-5.52h2.02v13.21h-2.02v-5.92h-6.7v5.92Z" fill="#000000"/>
      <path class="cls-2" d="m291.22,250.71h-2.02v-13.21h4.93c1.52,0,2.71.36,3.57,1.08.86.72,1.29,1.73,1.29,3.04,0,.94-.28,1.76-.85,2.45-.56.69-1.35,1.15-2.35,1.38l3.59,5.26h-2.43l-3.29-4.97h-2.43v4.97Zm0-11.52v4.86h2.78c.93,0,1.66-.21,2.17-.62.52-.41.77-1.01.77-1.81s-.26-1.4-.77-1.81c-.52-.41-1.24-.62-2.17-.62h-2.78Z" fill="#000000"/>
      <path class="cls-2" d="m318.52,248.94v1.77h-8.37v-13.21h8.24v1.77h-6.22v3.75h5.67v1.77h-5.67v4.16h6.35Z" fill="#000000"/>
      <path class="cls-2" d="m338.82,250.71l-4.03-11-4.08,11h-2.04l5.06-13.21h2.23l5.02,13.21h-2.15Zm-7.07-4.91h6.15l.55,1.64h-7.38l.68-1.64Z" fill="#000000"/>
      <path class="cls-2" d="m355.8,250.71h-4.18v-13.21h4.18c1.41,0,2.61.28,3.61.84.99.56,1.75,1.33,2.26,2.31s.77,2.12.77,3.4-.26,2.41-.79,3.41c-.53,1-1.29,1.79-2.29,2.37-1,.58-2.19.87-3.56.87Zm-2.15-11.46v9.71h2.06c1.02,0,1.87-.2,2.57-.6.69-.4,1.22-.97,1.57-1.7.36-.74.53-1.61.53-2.61s-.18-1.85-.53-2.57c-.36-.72-.88-1.27-1.57-1.66-.69-.39-1.55-.58-2.57-.58h-2.06Z" fill="#000000"/>
      <path class="cls-2" d="m383.05,246.85c0,.76-.2,1.45-.6,2.06s-.97,1.1-1.72,1.45c-.75.36-1.66.53-2.72.53s-1.98-.18-2.75-.54c-.77-.36-1.36-.87-1.79-1.54-.43-.66-.67-1.43-.74-2.3h2.06c.05.83.34,1.5.87,2.01s1.3.75,2.31.75c.56,0,1.07-.08,1.51-.26.44-.17.79-.42,1.04-.74.25-.32.38-.71.38-1.16,0-.55-.18-.98-.55-1.29-.37-.31-.93-.54-1.69-.7l-1.91-.37c-.47-.1-.91-.23-1.33-.4-.42-.17-.8-.4-1.14-.67-.34-.28-.6-.62-.79-1.03-.19-.41-.29-.89-.29-1.44,0-.75.2-1.42.6-2,.4-.59.95-1.05,1.66-1.39.71-.34,1.52-.51,2.44-.51s1.75.18,2.48.53c.73.36,1.32.85,1.77,1.49.45.64.7,1.4.75,2.28h-2.06c-.04-.53-.18-.99-.43-1.4-.25-.41-.59-.72-1-.95-.42-.23-.91-.34-1.47-.34s-1.04.1-1.44.3-.69.47-.9.79c-.21.33-.31.68-.31,1.06,0,.42.11.75.32,1,.21.25.5.45.86.6.36.15.74.26,1.14.35l1.95.39c1.14.23,2.01.61,2.62,1.14.61.53.91,1.29.91,2.28Z" fill="#000000"/>
    </g>
  </g>
</svg>